<svg width="27" height="27" viewBox="0 0 27 27" fill="none" xmlns="http://www.w3.org/2000/svg">
<path fill-rule="evenodd" clip-rule="evenodd" d="M17.1214 7.83992C17.1998 7.76135 17.2929 7.69901 17.3954 7.65647C17.4979 7.61394 17.6078 7.59204 17.7188 7.59204C17.8298 7.59204 17.9397 7.61394 18.0422 7.65647C18.1447 7.69901 18.2378 7.76135 18.3162 7.83992L23.3787 12.9024C23.4572 12.9808 23.5196 13.0739 23.5621 13.1764C23.6047 13.2789 23.6266 13.3888 23.6266 13.4998C23.6266 13.6108 23.6047 13.7207 23.5621 13.8232C23.5196 13.9257 23.4572 14.0188 23.3787 14.0972L18.3162 19.1597C18.1577 19.3181 17.9429 19.4071 17.7188 19.4071C17.4947 19.4071 17.2799 19.3181 17.1214 19.1597C16.963 19.0012 16.874 18.7864 16.874 18.5623C16.874 18.3382 16.963 18.1234 17.1214 17.9649L21.5882 13.4998L17.1214 9.03467C17.0428 8.9563 16.9805 8.86319 16.938 8.76068C16.8954 8.65817 16.8735 8.54828 16.8735 8.4373C16.8735 8.32632 16.8954 8.21642 16.938 8.11392C16.9805 8.01141 17.0428 7.9183 17.1214 7.83992Z" fill="#26CF6A"/>
<path fill-rule="evenodd" clip-rule="evenodd" d="M3.375 13.5C3.375 13.2762 3.4639 13.0616 3.62213 12.9034C3.78036 12.7451 3.99497 12.6562 4.21875 12.6562H21.9375C22.1613 12.6562 22.3759 12.7451 22.5341 12.9034C22.6924 13.0616 22.7812 13.2762 22.7812 13.5C22.7812 13.7238 22.6924 13.9384 22.5341 14.0966C22.3759 14.2549 22.1613 14.3438 21.9375 14.3438H4.21875C3.99497 14.3438 3.78036 14.2549 3.62213 14.0966C3.4639 13.9384 3.375 13.7238 3.375 13.5Z" fill="#26CF6A"/>
</svg>
