<svg width="79" height="85" viewBox="0 0 79 85" fill="none" xmlns="http://www.w3.org/2000/svg">
<rect width="65" height="65" fill="#D4AA7D" fill-opacity="0.5"/>
<path d="M48.5311 30.1562V62.8066L19.5493 70.8523L20.638 74.7686L54.6574 65.3253C54.8209 67.9007 55.9581 70.3175 57.8382 72.0852C59.7183 73.8529 62.2005 74.8391 64.7811 74.8438C70.3813 74.8438 74.9374 70.2877 74.9374 64.6875C74.9374 59.0873 70.3813 54.5312 64.7811 54.5312C62.7556 54.5347 60.7773 55.1436 59.1004 56.2797C57.4235 57.4159 56.1245 59.0274 55.3704 60.9073L52.5936 61.6772V34.2188H74.9374V30.1562H48.5311ZM39.3093 39.8331L17.8938 45.9736L23.5305 65.6442L44.95 59.4977L39.3133 39.8331H39.3093ZM36.5265 44.8544L39.9268 56.7128L26.3174 60.6128L22.9191 48.7584L36.5265 44.8544ZM64.7811 58.5938C68.1408 58.5938 70.8749 61.3278 70.8749 64.6875C70.8749 68.0472 68.1408 70.7812 64.7811 70.7812C61.4215 70.7812 58.6874 68.0472 58.6874 64.6875C58.6874 61.3278 61.4215 58.5938 64.7811 58.5938Z" fill="white"/>
</svg>
