<svg width="48" height="48" viewBox="0 0 48 48" fill="none" xmlns="http://www.w3.org/2000/svg">
<path d="M8 42.6667L8 5.33341C8 4.62617 8.28095 3.94789 8.78105 3.4478C9.28115 2.9477 9.95942 2.66675 10.6667 2.66675L37.3333 2.66675C38.0406 2.66675 38.7189 2.9477 39.219 3.4478C39.719 3.94789 40 4.62617 40 5.33341L40 42.6667C40 43.374 39.719 44.0523 39.2189 44.5524C38.7189 45.0525 38.0406 45.3334 37.3333 45.3334L10.6667 45.3334C9.95942 45.3334 9.28114 45.0525 8.78105 44.5524C8.28095 44.0523 8 43.374 8 42.6667ZM37.3333 5.33341L10.6667 5.33341L10.6667 42.6667L37.3333 42.6667L37.3333 5.33341Z" fill="white"/>
<path d="M14.2665 12.0003C14.2665 11.7174 14.3789 11.4461 14.5789 11.246C14.7789 11.046 15.0503 10.9336 15.3332 10.9336L32.6665 10.9336C32.9494 10.9336 33.2207 11.046 33.4207 11.246C33.6208 11.4461 33.7332 11.7174 33.7332 12.0003C33.7332 12.2832 33.6208 12.5545 33.4207 12.7545C33.2207 12.9545 32.9494 13.0669 32.6665 13.0669L15.3332 13.0669C15.0503 13.0669 14.7789 12.9545 14.5789 12.7545C14.3789 12.5545 14.2665 12.2832 14.2665 12.0003Z" fill="white"/>
<path d="M14.2665 19.8933C14.2665 19.6104 14.3789 19.3391 14.5789 19.1391C14.7789 18.939 15.0503 18.8267 15.3332 18.8267L32.6665 18.8267C32.9494 18.8267 33.2207 18.939 33.4207 19.1391C33.6208 19.3391 33.7332 19.6104 33.7332 19.8933C33.7332 20.1762 33.6208 20.4475 33.4207 20.6476C33.2207 20.8476 32.9494 20.96 32.6665 20.96L15.3332 20.96C15.0503 20.96 14.7789 20.8476 14.5789 20.6476C14.3789 20.4475 14.2665 20.1762 14.2665 19.8933Z" fill="white"/>
<path d="M14.2665 28.0003C14.2665 27.7174 14.3789 27.4461 14.5789 27.246C14.7789 27.046 15.0503 26.9336 15.3332 26.9336L32.6665 26.9336C32.9494 26.9336 33.2207 27.046 33.4207 27.246C33.6208 27.4461 33.7332 27.7174 33.7332 28.0003C33.7332 28.2832 33.6208 28.5545 33.4207 28.7545C33.2207 28.9545 32.9494 29.0669 32.6665 29.0669L15.3332 29.0669C15.0503 29.0669 14.7789 28.9545 14.5789 28.7545C14.3789 28.5545 14.2665 28.2832 14.2665 28.0003Z" fill="white"/>
<path d="M14.2665 36.0003C14.2665 35.7174 14.3789 35.4461 14.5789 35.246C14.7789 35.046 15.0503 34.9336 15.3332 34.9336L32.6665 34.9336C32.9494 34.9336 33.2207 35.046 33.4207 35.246C33.6208 35.4461 33.7332 35.7174 33.7332 36.0003C33.7332 36.2832 33.6208 36.5545 33.4207 36.7545C33.2207 36.9545 32.9494 37.0669 32.6665 37.0669L15.3332 37.0669C15.0503 37.0669 14.7789 36.9545 14.5789 36.7545C14.3789 36.5545 14.2665 36.2832 14.2665 36.0003Z" fill="white"/>
</svg>
