<svg width="79" height="85" viewBox="0 0 79 85" fill="none" xmlns="http://www.w3.org/2000/svg">
<rect width="65" height="65" fill="#D4AA7D" fill-opacity="0.5"/>
<path d="M46.08 50.816L42.2933 54.508C40.0986 52.3685 38.4617 49.7473 37.52 46.864L42.6933 45.59C43.5467 47.904 44.7467 49.49 46.08 50.816ZM49.3333 37.4L38.6667 27L28 37.4H36.0533C36.1067 39.506 36.2667 41.404 36.56 43.042L41.7333 41.768C41.5467 40.52 41.4133 39.038 41.3867 37.4H49.3333ZM76 37.4L65.3333 27L54.6667 37.4H62.64C62.3733 46.968 59.2267 49.75 55.8667 52.688C54.5333 53.832 53.1733 55.08 52 56.718C51.0933 55.444 50.0533 54.43 48.9867 53.494L45.2267 57.16C47.7067 59.37 49.3333 61.164 49.3333 66V79H54.6667V66C54.6667 60.748 56.56 59.084 59.44 56.562C63.12 53.338 67.6533 49.334 67.9733 37.4H76Z" fill="white"/>
</svg>
