<svg width="24" height="24" viewBox="0 0 24 24" fill="none" xmlns="http://www.w3.org/2000/svg">
<path d="M20.9375 4.4375H3.0625C2.68223 4.4375 2.375 4.74473 2.375 5.125V18.875C2.375 19.2553 2.68223 19.5625 3.0625 19.5625H20.9375C21.3178 19.5625 21.625 19.2553 21.625 18.875V5.125C21.625 4.74473 21.3178 4.4375 20.9375 4.4375ZM20.0781 6.81797V18.0156H3.92188V6.81797L3.32891 6.35605L4.17324 5.27109L5.09277 5.98652H18.9094L19.8289 5.27109L20.6732 6.35605L20.0781 6.81797ZM18.9094 5.98438L12 11.3555L5.09062 5.98438L4.17109 5.26895L3.32676 6.35391L3.91973 6.81582L11.2588 12.5221C11.4698 12.686 11.7295 12.7751 11.9968 12.7751C12.264 12.7751 12.5237 12.686 12.7348 12.5221L20.0781 6.81797L20.6711 6.35605L19.8268 5.27109L18.9094 5.98438Z" fill="#26CF6A"/>
</svg>
