<svg width="79" height="85" viewBox="0 0 79 85" fill="none" xmlns="http://www.w3.org/2000/svg">
<rect width="65" height="65" fill="#D4AA7D" fill-opacity="0.5"/>
<path d="M46.9999 66.3334L49.6666 61V47.288C54.2559 46.096 57.6666 41.9547 57.6666 37C57.6666 31.1174 52.8826 26.3334 46.9999 26.3334C41.1173 26.3334 36.3333 31.1174 36.3333 37C36.3333 41.9547 39.7439 46.096 44.3333 47.288V61L46.9999 66.3334Z" fill="white"/>
<path d="M58.3786 49.1681L56.9573 54.3094C63.8666 56.2187 68.3333 59.8907 68.3333 63.6667C68.3333 68.7121 59.5733 74.3334 46.9999 74.3334C34.4266 74.3334 25.6666 68.7121 25.6666 63.6667C25.6666 59.8907 30.1333 56.2187 37.0453 54.3067L35.6239 49.1654C26.1919 51.7734 20.3333 57.3281 20.3333 63.6667C20.3333 72.6374 32.0479 79.6667 46.9999 79.6667C61.9519 79.6667 73.6666 72.6374 73.6666 63.6667C73.6666 57.3281 67.8079 51.7734 58.3786 49.1681Z" fill="white"/>
</svg>
