<svg width="48" height="48" viewBox="0 0 48 48" fill="none" xmlns="http://www.w3.org/2000/svg">
<g clip-path="url(#clip0)">
<path d="M47.7659 40.042L36.1168 5.04203C35.7026 3.79734 34.8001 3 33.8068 3H25.6744L25.8785 5.53313C25.9202 6.04938 25.611 6.5 25.2152 6.5H22.7852C22.3894 6.5 22.0802 6.04938 22.1219 5.53313L22.3261 3H14.1936C13.1995 3 12.297 3.79734 11.8828 5.04203L0.233711 40.042C-0.537117 42.3597 0.692875 45 2.54536 45H18.9486L19.8077 34.3162C19.8794 33.4259 20.4511 32.75 21.1336 32.75H26.8669C27.5493 32.75 28.121 33.4259 28.1927 34.3162L29.0518 45H45.4551C47.3075 45 48.5375 42.3597 47.7659 40.042ZM21.7002 10.7831C21.7175 10.5681 21.7949 10.3691 21.9174 10.2245C22.0399 10.0798 22.1988 9.99989 22.3636 10H25.6377C25.9785 10 26.2652 10.338 26.301 10.7831L26.6844 15.5497C26.7469 16.3252 26.2835 17 25.6902 17H22.3119C21.7177 17 21.2552 16.3252 21.3177 15.5497L21.7002 10.7831ZM26.3035 29.25H21.6961C20.9044 29.25 20.2869 28.3498 20.3702 27.3162L20.7927 22.0662C20.8644 21.1759 21.4361 20.5 22.1186 20.5H25.881C26.5635 20.5 27.1352 21.1759 27.2069 22.0662L27.6293 27.3162C27.7127 28.3498 27.0952 29.25 26.3035 29.25Z" fill="white"/>
</g>
<defs>
<clipPath id="clip0">
<rect width="48" height="48" fill="white" transform="translate(48) rotate(90)"/>
</clipPath>
</defs>
</svg>
