<svg width="79" height="85" viewBox="0 0 79 85" fill="none" xmlns="http://www.w3.org/2000/svg">
<rect width="65" height="65" fill="#D4AA7D" fill-opacity="0.5"/>
<path d="M52.3333 42.3333H27.4444C26.9729 42.3333 26.5207 42.146 26.1873 41.8126C25.8539 41.4792 25.6666 41.027 25.6666 40.5555V33.4444C25.6666 32.9729 25.8539 32.5207 26.1873 32.1873C26.5207 31.8539 26.9729 31.6666 27.4444 31.6666H52.3333C52.8048 31.6666 53.257 31.8539 53.5904 32.1873C53.9238 32.5207 54.1111 32.9729 54.1111 33.4444V40.5555C54.1111 41.027 53.9238 41.4792 53.5904 41.8126C53.257 42.146 52.8048 42.3333 52.3333 42.3333ZM29.2222 38.7777H50.5555V35.1155H29.2222V38.7777Z" fill="white"/>
<path d="M52.3333 46.0312H27.4444C26.9729 46.0312 26.5207 46.2186 26.1873 46.5519C25.8539 46.8853 25.6666 47.3375 25.6666 47.809V54.7779C25.6666 55.2494 25.8539 55.7016 26.1873 56.035C26.5207 56.3684 26.9729 56.5557 27.4444 56.5557H47.64L54.1111 49.9779V47.809C54.1111 47.3375 53.9238 46.8853 53.5904 46.5519C53.257 46.2186 52.8048 46.0312 52.3333 46.0312ZM50.5555 53.0001H29.2222V49.4446H50.5555V53.0001Z" fill="white"/>
<path d="M34.6622 77.0178V76.9111L35.2311 74.44H22.1111V28.1111H57.6666V46.3333L61.2222 42.9733V26.3333C61.2222 25.8618 61.0349 25.4096 60.7015 25.0762C60.3681 24.7428 59.9159 24.5555 59.4444 24.5555H20.3333C19.8618 24.5555 19.4096 24.7428 19.0762 25.0762C18.7428 25.4096 18.5555 25.8618 18.5555 26.3333V76.1111C18.5555 76.5826 18.7428 77.0348 19.0762 77.3682C19.4096 77.7016 19.8618 77.8889 20.3333 77.8889H34.5555C34.5702 77.5963 34.6058 77.3052 34.6622 77.0178Z" fill="white"/>
<path d="M54.111 55.08L52.7244 56.4844C53.0684 56.4135 53.3837 56.2422 53.6305 55.9923C53.8773 55.7423 54.0445 55.4249 54.111 55.08Z" fill="white"/>
<path d="M25.6666 68.8933C25.6666 69.3648 25.8539 69.817 26.1873 70.1504C26.5207 70.4838 26.9729 70.6711 27.4444 70.6711H36.0488L36.5822 68.36L36.8133 67.3822V67.2933H29.2222V63.6666H40.4933L44.0488 60.1111H27.4444C26.9729 60.1111 26.5207 60.2984 26.1873 60.6318C25.8539 60.9652 25.6666 61.4174 25.6666 61.8889V68.8933Z" fill="white"/>
<path d="M74.5377 50.6356L68.5466 44.6444C68.2807 44.3778 67.9648 44.1663 67.6171 44.022C67.2693 43.8776 66.8965 43.8033 66.5199 43.8033C66.1434 43.8033 65.7706 43.8776 65.4228 44.022C65.075 44.1663 64.7591 44.3778 64.4933 44.6444L40.1199 69.16L38.111 77.7111C38.0358 78.08 38.0341 78.4601 38.1061 78.8297C38.178 79.1993 38.3221 79.551 38.5302 79.8648C38.7383 80.1785 39.0062 80.4482 39.3187 80.6582C39.6311 80.8683 39.9819 81.0146 40.351 81.0889C40.5343 81.1073 40.7189 81.1073 40.9021 81.0889C41.12 81.1244 41.3421 81.1244 41.5599 81.0889L50.1822 79.1867L74.5377 54.7778C74.8038 54.5134 75.0149 54.199 75.159 53.8527C75.3031 53.5064 75.3773 53.1351 75.3773 52.76C75.3773 52.3849 75.3031 52.0136 75.159 51.6673C75.0149 51.321 74.8038 51.0066 74.5377 50.7422V50.6356ZM48.3688 75.9511L41.8621 77.3911L43.4444 70.9378L61.7199 52.4667L66.7333 57.48L48.3688 75.9511ZM68.7421 55.4711L63.7288 50.4578L66.5555 47.6667L71.6044 52.7156L68.7421 55.4711Z" fill="white"/>
</svg>
