<svg width="48" height="48" viewBox="0 0 48 48" fill="none" xmlns="http://www.w3.org/2000/svg">
<g clip-path="url(#clip0)">
<path d="M47.8629 23.8173L42.72 10.7427C42.5888 10.4051 42.3692 10.1171 42.0888 9.91449C41.8083 9.71188 41.4794 9.60369 41.1429 9.60339H36V5.8678C36 5.37243 35.8194 4.89735 35.4979 4.54707C35.1764 4.19679 34.7404 4 34.2857 4H1.71429C1.25963 4 0.823593 4.19679 0.502103 4.54707C0.180612 4.89735 0 5.37243 0 5.8678V37.6203C0 38.1157 0.180612 38.5908 0.502103 38.9411C0.823593 39.2913 1.25963 39.4881 1.71429 39.4881H5.38286C5.77763 41.0708 6.63943 42.468 7.83531 43.4642C9.03119 44.4603 10.4947 45 12 45C13.5053 45 14.9688 44.4603 16.1647 43.4642C17.3606 42.468 18.2224 41.0708 18.6171 39.4881H29.3829C29.7776 41.0708 30.6394 42.468 31.8353 43.4642C33.0312 44.4603 34.4947 45 36 45C37.5053 45 38.9688 44.4603 40.1647 43.4642C41.3606 42.468 42.2224 41.0708 42.6171 39.4881H46.2857C46.7404 39.4881 47.1764 39.2913 47.4979 38.9411C47.8194 38.5908 48 38.1157 48 37.6203V24.5458C47.9996 24.2954 47.9529 24.0477 47.8629 23.8173ZM36 13.339H40.0114L43.68 22.678H36V13.339ZM12 41.3559C11.3219 41.3559 10.659 41.1368 10.0952 40.7264C9.53136 40.3159 9.09191 39.7325 8.83241 39.0499C8.57291 38.3673 8.50502 37.6162 8.63731 36.8916C8.7696 36.1669 9.09614 35.5013 9.57563 34.9789C10.0551 34.4564 10.666 34.1007 11.3311 33.9565C11.9962 33.8124 12.6856 33.8864 13.3121 34.1691C13.9385 34.4518 14.474 34.9306 14.8508 35.545C15.2275 36.1593 15.4286 36.8815 15.4286 37.6203C15.4286 38.6111 15.0673 39.5612 14.4244 40.2618C13.7814 40.9624 12.9093 41.3559 12 41.3559ZM29.3829 35.7525H18.6171C18.2224 34.1698 17.3606 32.7726 16.1647 31.7765C14.9688 30.7804 13.5053 30.2407 12 30.2407C10.4947 30.2407 9.03119 30.7804 7.83531 31.7765C6.63943 32.7726 5.77763 34.1698 5.38286 35.7525H3.42857V7.73559H32.5714V31.1951C31.7908 31.6887 31.1073 32.3454 30.5602 33.1275C30.013 33.9096 29.6129 34.8016 29.3829 35.7525ZM36 41.3559C35.3219 41.3559 34.659 41.1368 34.0952 40.7264C33.5314 40.3159 33.0919 39.7325 32.8324 39.0499C32.5729 38.3673 32.505 37.6162 32.6373 36.8916C32.7696 36.1669 33.0961 35.5013 33.5756 34.9789C34.0551 34.4564 34.666 34.1007 35.3311 33.9565C35.9962 33.8124 36.6856 33.8864 37.3121 34.1691C37.9385 34.4518 38.474 34.9306 38.8508 35.545C39.2275 36.1593 39.4286 36.8815 39.4286 37.6203C39.4286 38.6111 39.0673 39.5612 38.4244 40.2618C37.7814 40.9624 36.9093 41.3559 36 41.3559ZM44.5714 35.7525H42.6171C42.2381 34.1528 41.383 32.7351 40.1857 31.7213C38.9884 30.7074 37.5164 30.1545 36 30.1492V26.4136H44.5714V35.7525Z" fill="white"/>
</g>
<defs>
<clipPath id="clip0">
<rect width="48" height="48" fill="white" transform="translate(48) rotate(90)"/>
</clipPath>
</defs>
</svg>
