<svg width="18" height="18" viewBox="0 0 18 18" fill="none" xmlns="http://www.w3.org/2000/svg">
<g clip-path="url(#clip0)">
<path d="M8.68421 3.65625C6.82831 3.65625 5.32258 5.16797 5.32258 7.03125C5.32258 8.89453 6.82831 10.4062 8.68421 10.4062C10.5401 10.4062 12.0458 8.89453 12.0458 7.03125C12.0458 5.16797 10.5401 3.65625 8.68421 3.65625ZM8.68421 8.71875C7.75626 8.71875 7.0034 7.96289 7.0034 7.03125C7.0034 6.09961 7.75626 5.34375 8.68421 5.34375C9.61216 5.34375 10.365 6.09961 10.365 7.03125C10.365 7.96289 9.61216 8.71875 8.68421 8.71875ZM8.68421 0.28125C3.88688 0.28125 0 4.18359 0 9C0 13.8164 3.88688 17.7188 8.68421 17.7188C13.4815 17.7188 17.3684 13.8164 17.3684 9C17.3684 4.18359 13.4815 0.28125 8.68421 0.28125ZM8.68421 16.0312C6.94387 16.0312 5.3541 15.3879 4.1285 14.3297C4.65026 13.5211 5.54319 12.9727 6.56568 12.941C7.29404 13.166 7.98737 13.2785 8.68421 13.2785C9.38105 13.2785 10.0744 13.1695 10.8027 12.941C11.8252 12.9762 12.7182 13.5211 13.2399 14.3297C12.0143 15.3879 10.4246 16.0312 8.68421 16.0312ZM14.3815 13.0746C13.5271 11.9707 12.2069 11.25 10.7012 11.25C10.344 11.25 9.79075 11.5875 8.68421 11.5875C7.58118 11.5875 7.02441 11.25 6.66723 11.25C5.165 11.25 3.84486 11.9707 2.98695 13.0746C2.16755 11.925 1.68081 10.5188 1.68081 9C1.68081 5.12227 4.82184 1.96875 8.68421 1.96875C12.5466 1.96875 15.6876 5.12227 15.6876 9C15.6876 10.5188 15.2009 11.925 14.3815 13.0746Z" fill="white"/>
</g>
<defs>
<clipPath id="clip0">
<rect width="17.3684" height="18" fill="white"/>
</clipPath>
</defs>
</svg>
