<svg width="16" height="16" viewBox="0 0 16 16" fill="none" xmlns="http://www.w3.org/2000/svg">
<path d="M7.59891 0.00232818C6.31491 0.0178282 3.55441 0.228828 2.01041 1.64533C0.861907 2.78333 0.460907 4.46583 0.413907 6.54633C0.374907 8.61933 0.327907 12.5123 4.08041 13.5723V15.1868C4.08041 15.1868 4.05691 15.8328 4.48391 15.9653C5.00991 16.1318 5.30941 15.6348 5.80941 15.1008L6.74191 14.0463C9.30941 14.2598 11.2759 13.7678 11.5024 13.6948C12.0234 13.5283 14.9579 13.1533 15.4374 9.25983C15.9294 5.23883 15.1979 2.70533 13.8774 1.55933H13.8694C13.4709 1.19233 11.8694 0.0253282 8.29141 0.0123282C8.29141 0.0123282 8.02591 -0.00567182 7.59891 0.00182818V0.00232818ZM7.64291 1.13283C8.00741 1.13033 8.22891 1.14583 8.22891 1.14583C11.2574 1.15383 12.7029 2.06533 13.0439 2.37233C14.1559 3.32533 14.7289 5.60933 14.3094 8.96633C13.9109 12.2213 11.5309 12.4273 11.0904 12.5678C10.9029 12.6278 9.17091 13.0548 6.98891 12.9143C6.98891 12.9143 5.36391 14.8753 4.85591 15.3803C4.77541 15.4688 4.68141 15.4948 4.62141 15.4818C4.53541 15.4608 4.50941 15.3543 4.51441 15.2083L4.52991 12.5288C1.34741 11.6488 1.53491 8.32833 1.56891 6.59383C1.60791 4.85933 1.93341 3.44033 2.90241 2.47933C4.20691 1.29983 6.55091 1.14083 7.64191 1.13283H7.64291ZM7.88291 2.86683C7.85671 2.86656 7.83073 2.87149 7.80645 2.88131C7.78216 2.89114 7.76007 2.90567 7.74143 2.92408C7.72279 2.94249 7.70798 2.9644 7.69785 2.98855C7.68772 3.01271 7.68247 3.03863 7.68241 3.06483C7.68241 3.17683 7.77341 3.26533 7.88291 3.26533C8.37866 3.2559 8.87137 3.34471 9.33263 3.52664C9.79389 3.70857 10.2146 3.98002 10.5704 4.32533C11.2969 5.03083 11.6509 5.97883 11.6644 7.21833C11.6644 7.32783 11.7529 7.41883 11.8649 7.41883V7.41083C11.9177 7.41096 11.9684 7.39022 12.0059 7.35313C12.0435 7.31604 12.0649 7.26561 12.0654 7.21283C12.0897 6.6294 11.9951 6.04713 11.7873 5.50141C11.5796 4.95569 11.263 4.45791 10.8569 4.03833C10.0654 3.26483 9.06241 2.86633 7.88291 2.86633V2.86683ZM5.24741 3.32533C5.10588 3.30465 4.96154 3.33306 4.83841 3.40583H4.82791C4.54204 3.5734 4.28451 3.78519 4.06491 4.03333C3.88241 4.24433 3.78341 4.45783 3.75741 4.66333C3.74191 4.78583 3.75241 4.90833 3.78891 5.02533L3.80191 5.03333C4.00741 5.63733 4.27591 6.21833 4.60391 6.76533C5.02642 7.53381 5.54638 8.24451 6.15091 8.87983L6.16891 8.90583L6.19741 8.92683L6.21541 8.94783L6.23641 8.96583C6.87402 9.57212 7.58645 10.0945 8.35641 10.5203C9.23641 10.9993 9.77041 11.2258 10.0909 11.3198V11.3248C10.1849 11.3533 10.2704 11.3663 10.3564 11.3663C10.6296 11.3463 10.8881 11.2354 11.0909 11.0513C11.3379 10.8317 11.5474 10.5731 11.7109 10.2858V10.2808C11.8644 9.99183 11.8124 9.71833 11.5909 9.53333C11.1473 9.14558 10.6676 8.80117 10.1584 8.50483C9.81741 8.31983 9.47091 8.43183 9.33041 8.61933L9.03091 8.99683C8.87741 9.18433 8.59841 9.15833 8.59841 9.15833L8.59041 9.16333C6.50991 8.63183 5.95491 6.52533 5.95491 6.52533C5.95491 6.52533 5.92891 6.23883 6.12141 6.09283L6.49641 5.79083C6.67591 5.64483 6.80091 5.29883 6.60841 4.95733C6.31411 4.4474 5.97046 3.9676 5.58241 3.52483C5.49757 3.42044 5.37856 3.34942 5.24641 3.32433L5.24741 3.32533ZM8.22891 3.91933C7.96341 3.91933 7.96341 4.32033 8.23141 4.32033C8.56155 4.32568 8.8874 4.39605 9.19033 4.52739C9.49327 4.65874 9.76734 4.8485 9.99691 5.08583C10.2063 5.31683 10.3672 5.58752 10.4701 5.88185C10.573 6.17618 10.6158 6.48817 10.5959 6.79933C10.5968 6.85199 10.6183 6.9022 10.6558 6.9392C10.6933 6.97621 10.7437 6.99707 10.7964 6.99733L10.8044 7.00783C10.8575 7.00744 10.9082 6.98619 10.9457 6.94867C10.9833 6.91115 11.0045 6.86038 11.0049 6.80733C11.0229 6.01283 10.7759 5.34633 10.2914 4.81233C9.80441 4.27833 9.12491 3.97883 8.25741 3.91933H8.22891ZM8.55741 4.99733C8.28391 4.98933 8.27341 5.39833 8.54441 5.40633C9.20341 5.44033 9.52341 5.77333 9.56541 6.45833C9.56632 6.51032 9.58755 6.5599 9.62456 6.59644C9.66156 6.63297 9.7114 6.65357 9.76341 6.65383H9.77141C9.79814 6.65268 9.82438 6.64622 9.8486 6.63482C9.87281 6.62343 9.89451 6.60732 9.91243 6.58745C9.93035 6.56757 9.94413 6.54432 9.95297 6.51907C9.96181 6.49381 9.96552 6.46704 9.96391 6.44033C9.91691 5.54733 9.42991 5.04433 8.56541 4.99783H8.55741V4.99733Z" fill="white"/>
</svg>
